<svg width="16" height="14" viewBox="0 0 16 14" fill="none" xmlns="http://www.w3.org/2000/svg">
<path d="M0 2.69604C0 2.43083 0.105357 2.17647 0.292893 1.98894C0.48043 1.8014 0.734784 1.69604 1 1.69604H15C15.2652 1.69604 15.5196 1.8014 15.7071 1.98894C15.8946 2.17647 16 2.43083 16 2.69604V10.696C16 10.9613 15.8946 11.2156 15.7071 11.4032C15.5196 11.5907 15.2652 11.696 15 11.696H1C0.734784 11.696 0.48043 11.5907 0.292893 11.4032C0.105357 11.2156 0 10.9613 0 10.696V2.69604ZM3 2.69604C3 3.22648 2.78929 3.73519 2.41421 4.11026C2.03914 4.48533 1.53043 4.69604 1 4.69604V8.69604C1.53043 8.69604 2.03914 8.90676 2.41421 9.28183C2.78929 9.6569 3 10.1656 3 10.696H13C13 10.1656 13.2107 9.6569 13.5858 9.28183C13.9609 8.90676 14.4696 8.69604 15 8.69604V4.69604C14.4696 4.69604 13.9609 4.48533 13.5858 4.11026C13.2107 3.73519 13 3.22648 13 2.69604H3Z" fill="black"/>
<path d="M9.69006 10.3392L6.05369 4.04086L6.55805 3.74967L10.1944 10.048L9.69006 10.3392ZM9.57691 9.46144C9.13406 9.71712 8.69234 9.83273 8.25176 9.80826C7.81119 9.7838 7.39884 9.63778 7.01474 9.37022C6.63063 9.10266 6.30245 8.7331 6.0302 8.26154C5.75321 7.78178 5.59694 7.3075 5.56137 6.83871C5.52668 6.36668 5.60845 5.93539 5.80668 5.54484C6.00578 5.15106 6.31856 4.83106 6.74501 4.58485C7.07715 4.39309 7.412 4.28177 7.74955 4.2509C8.08711 4.22004 8.40489 4.26619 8.7029 4.38937C9.00091 4.51255 9.25565 4.70992 9.46711 4.98148L8.74132 5.40052C8.56167 5.2172 8.32857 5.09755 8.04202 5.04157C7.75633 4.98235 7.45357 5.04507 7.13373 5.22973C6.8508 5.39308 6.64533 5.61012 6.51733 5.88084C6.3902 6.14833 6.34412 6.44967 6.37908 6.78486C6.41492 7.11681 6.53582 7.46116 6.74178 7.8179C6.95249 8.18285 7.19337 8.46749 7.46443 8.67184C7.73755 8.875 8.0229 8.99045 8.32048 9.0182C8.62012 9.04476 8.91346 8.97518 9.20049 8.80946C9.38911 8.70056 9.54137 8.56892 9.65726 8.41453C9.77315 8.26014 9.84889 8.09067 9.88448 7.9061C9.92007 7.72153 9.9107 7.53011 9.85638 7.33185L10.5822 6.91282C10.7021 7.21533 10.7457 7.52508 10.7127 7.84207C10.6806 8.15582 10.5702 8.45466 10.3815 8.73857C10.1937 9.01925 9.92545 9.26021 9.57691 9.46144Z" fill="black"/>
</svg>
